{
  "asset": {
    "generator": "glTF-Transform v4.2.1",
    "version": "2.0"
  },
  "accessors": [
    {
      "type": "VEC3",
      "componentType": 5126,
      "count": 13518,
      "max": [
        0.03097086399793625,
        0.10474767535924911,
        0.031887758523225784
      ],
      "min": [
        -0.030970871448516846,
        8.82519035627638e-9,
        -0.03188776597380638
      ],
      "bufferView": 0,
      "byteOffset": 0
    },
    {
      "type": "VEC2",
      "componentType": 5126,
      "count": 13518,
      "bufferView": 0,
      "byteOffset": 12
    },
    {
      "type": "VEC2",
      "componentType": 5126,
      "count": 13518,
      "bufferView": 0,
      "byteOffset": 20
    },
    {
      "type": "VEC2",
      "componentType": 5126,
      "count": 13518,
      "bufferView": 0,
      "byteOffset": 28
    },
    {
      "type": "VEC3",
      "componentType": 5126,
      "count": 13518,
      "bufferView": 0,
      "byteOffset": 36
    },
    {
      "type": "VEC4",
      "componentType": 5126,
      "count": 13518,
      "bufferView": 0,
      "byteOffset": 48
    },
    {
      "type": "SCALAR",
      "componentType": 5123,
      "count": 75000,
      "bufferView": 1,
      "byteOffset": 0
    }
  ],
  "bufferViews": [
    {
      "buffer": 0,
      "byteOffset": 0,
      "byteLength": 865152,
      "byteStride": 64,
      "target": 34962
    },
    {
      "buffer": 0,
      "byteOffset": 865152,
      "byteLength": 150000,
      "target": 34963
    }
  ],
  "samplers": [
    {
      "magFilter": 9729,
      "minFilter": 9987,
      "wrapS": 10497,
      "wrapT": 10497
    }
  ],
  "textures": [
    {
      "source": 0,
      "sampler": 0
    },
    {
      "source": 1,
      "sampler": 0
    },
    {
      "source": 2,
      "sampler": 0
    }
  ],
  "images": [
    {
      "mimeType": "image/png",
      "uri": "baseColor_1.png"
    },
    {
      "mimeType": "image/png",
      "uri": "normal_1.png"
    },
    {
      "mimeType": "image/png",
      "uri": "occlusion_1.png"
    }
  ],
  "buffers": [
    {
      "uri": "buffer.bin",
      "byteLength": 1015152
    }
  ],
  "materials": [
    {
      "name": "Texture",
      "doubleSided": true,
      "pbrMetallicRoughness": {
        "roughnessFactor": 0.8999999761581421,
        "metallicFactor": 0,
        "baseColorTexture": {
          "index": 0
        }
      },
      "normalTexture": {
        "index": 1
      },
      "occlusionTexture": {
        "index": 2
      }
    }
  ],
  "meshes": [
    {
      "primitives": [
        {
          "attributes": {
            "POSITION": 0,
            "TEXCOORD_0": 1,
            "TEXCOORD_1": 2,
            "TEXCOORD_2": 3,
            "NORMAL": 4,
            "TANGENT": 5
          },
          "mode": 4,
          "material": 0,
          "indices": 6
        }
      ]
    }
  ],
  "nodes": [
    {
      "name": "AuxScene",
      "children": [
        1
      ]
    },
    {
      "name": "colausdz",
      "extras": {
        "name": "cola.usdz"
      },
      "children": [
        2
      ]
    },
    {
      "name": "Geometry",
      "extras": {
        "name": "Geometry"
      },
      "children": [
        3
      ]
    },
    {
      "name": "Mesh",
      "extras": {
        "name": "Mesh"
      },
      "mesh": 0
    }
  ],
  "scenes": [
    {
      "name": "AuxScene",
      "nodes": [
        0
      ]
    }
  ],
  "scene": 0
}